<svg width="32" height="35" viewBox="0 0 32 35" fill="none" xmlns="http://www.w3.org/2000/svg">
<path d="M15.9997 22.2032C18.7551 22.2032 20.9887 19.9696 20.9887 17.2142C20.9887 14.4589 18.7551 12.2252 15.9997 12.2252C13.2444 12.2252 11.0107 14.4589 11.0107 17.2142C11.0107 19.9696 13.2444 22.2032 15.9997 22.2032Z" stroke="black" stroke-width="2" stroke-miterlimit="10" stroke-linecap="round" stroke-linejoin="round"/>
<path d="M30.6649 10.1872L29.4176 8.02699C28.7291 6.83338 27.2037 6.42553 26.0101 7.11401L25.3541 7.49317C22.8596 8.93249 19.7415 7.13272 19.7415 4.25282V3.4945C19.7415 2.11629 18.6252 1 17.247 1H14.7525C13.3743 1 12.258 2.11629 12.258 3.4945V4.25282C12.258 7.13272 9.13986 8.93374 6.64537 7.49317L5.98931 7.11401C4.7957 6.42553 3.27031 6.83338 2.58183 8.02699L1.33459 10.1872C0.646106 11.3808 1.05396 12.9062 2.24757 13.5947L2.90362 13.9739C5.39812 15.4144 5.39812 19.014 2.90362 20.4546L2.24757 20.8337C1.05396 21.5222 0.646106 23.0476 1.33459 24.2412L2.58183 26.4014C3.27031 27.5951 4.7957 28.0029 5.98931 27.3144L6.64537 26.9353C9.13986 25.4947 12.258 27.2957 12.258 30.1756V30.9339C12.258 32.3121 13.3743 33.4284 14.7525 33.4284H17.247C18.6252 33.4284 19.7415 32.3121 19.7415 30.9339V30.1756C19.7415 27.2957 22.8596 25.4947 25.3541 26.9353L26.0101 27.3144C27.2037 28.0029 28.7291 27.5951 29.4176 26.4014L30.6649 24.2412C31.3533 23.0476 30.9455 21.5222 29.7519 20.8337L29.0958 20.4546C26.6013 19.014 26.6013 15.4144 29.0958 13.9739L29.7519 13.5947C30.9455 12.9062 31.3546 11.3808 30.6649 10.1872Z" stroke="black" stroke-width="2" stroke-miterlimit="10" stroke-linecap="round" stroke-linejoin="round"/>
</svg>
