<svg width="21" height="17" viewBox="0 0 21 17" fill="none" xmlns="http://www.w3.org/2000/svg">
<path fill-rule="evenodd" clip-rule="evenodd" d="M0 0.944444C0 0.422842 0.427365 0 0.954545 0H20.0455C20.5726 0 21 0.422842 21 0.944444C21 1.46605 20.5726 1.88889 20.0455 1.88889H0.954545C0.427365 1.88889 0 1.46605 0 0.944444ZM0 8.5C0 7.9784 0.427365 7.55556 0.954545 7.55556H20.0455C20.5726 7.55556 21 7.9784 21 8.5C21 9.0216 20.5726 9.44444 20.0455 9.44444H0.954545C0.427365 9.44444 0 9.0216 0 8.5ZM0 16.0556C0 15.534 0.427365 15.1111 0.954545 15.1111H20.0455C20.5726 15.1111 21 15.534 21 16.0556C21 16.5772 20.5726 17 20.0455 17H0.954545C0.427365 17 0 16.5772 0 16.0556Z" fill="black"/>
</svg>
